# xmcd
#
# Track frame offsets:
#	150
#	15410
#	29242
#	43928
#	58020
#	71795
#	83057
#	98120
#	112230
#	124979
#	140448
#	153775
#	165360
#	178030
#	190959
#	204171
#	218572
#	230451
#	246032
#	259564
#
# Disc length: 3651 seconds
#
# Revision: 1
# Processed by: cddbd v1.5.2PL0 Copyright (c) Steve Scherf et al.
# Submitted via: audiograbber 1.83.01
#
DISCID=160e4114
DTITLE=Vico Torriani - Die grössten Stimmen unserer Zeit
DYEAR=1900
DGENRE=Schlager
TTITLE0=Bella, bella Donna
TTITLE1=Blaue Nacht in Sevilla
TTITLE2=Als einst Casanova durch Venedig ging
TTITLE3=Du schwarzer Zigeuner
TTITLE4=Am Strande von Havanna
TTITLE5=Bon Soir, bon Soir
TTITLE6=Florentinische Nächte
TTITLE7=Addio, Donna Grazia
TTITLE8=Am Lago Maggiore
TTITLE9=Carina - Carissima
TTITLE10=Santa Lucia
TTITLE11=Domani
TTITLE12=Mandolino
TTITLE13=Habanera
TTITLE14=Barcarole d'Amore
TTITLE15=In der Cafeteria von Milano
TTITLE16=Isabella (Andalusische Märchen)
TTITLE17=Blauer Tango
TTITLE18=Cara Ticinella
TTITLE19=Bella Venezia
EXTD=
EXTT0=
EXTT1=
EXTT2=
EXTT3=
EXTT4=
EXTT5=
EXTT6=
EXTT7=
EXTT8=
EXTT9=
EXTT10=
EXTT11=
EXTT12=
EXTT13=
EXTT14=
EXTT15=
EXTT16=
EXTT17=
EXTT18=
EXTT19=
PLAYORDER=
